<?xml version="1.0" encoding="utf-8"?>
<!-- Generator: Adobe Illustrator 22.0.0, SVG Export Plug-In . SVG Version: 6.00 Build 0)  -->
<svg version="1.1" id="Capa_1" xmlns="http://www.w3.org/2000/svg" xmlns:xlink="http://www.w3.org/1999/xlink" x="0px" y="0px"
	 viewBox="0 0 489.8 489.8" style="enable-background:new 0 0 489.8 489.8;" xml:space="preserve">
<style type="text/css">
	.st0{fill:#F7F7F7;}
</style>
<g>
	<g>
		<g>
			<ellipse class="st0" cx="337.5" cy="319.4" rx="24.4" ry="36.6"/>
		</g>
		<g>
			<ellipse class="st0" cx="385.9" cy="202.3" rx="21.7" ry="32.7"/>
		</g>
		<g>
			<path class="st0" d="M472.6,75.9L251.8,9.5c-0.4-0.1-0.9-0.2-1.3-0.3c-0.4-0.1-0.9-0.2-1.3-0.3c-2.9-0.5-5.8-0.5-8.7,0
				c-0.4,0.1-0.9,0.2-1.3,0.3c-0.4,0.1-0.9,0.2-1.3,0.3l-49.3,14.8l-39.8,12L37.3,69.8l0,0l-20.1,6C7,78.9,0,88.3,0,98.9v291.7
				c0,10.7,7,20,17.2,23.1l220.7,66.6c2.3,0.7,4.6,1,7,1c2.3,0,4.7-0.3,7-1l220.7-66.4c10.2-3.1,17.2-12.5,17.2-23.1V99
				C489.8,88.4,482.8,79,472.6,75.9z M70.2,364.6c-11.7,0-21.3-14.3-21.3-31.9s9.5-31.9,21.3-31.9c11.7,0,21.3,14.3,21.3,31.9
				S81.9,364.6,70.2,364.6z M120.5,273.7c-12.9,0-23.4-15.8-23.4-35.2s10.5-35.2,23.4-35.2s23.4,15.8,23.4,35.2
				S133.5,273.7,120.5,273.7z M177.9,183.5c-13.5,0-24.4-16.4-24.4-36.6s10.9-36.6,24.4-36.6s24.4,16.4,24.4,36.6
				S191.4,183.5,177.9,183.5z M441.5,372.8L269,424.7V65.1L441.5,117V372.8z"/>
		</g>
	</g>
</g>
</svg>
