<svg id="Capa_1" data-name="Capa 1" xmlns="http://www.w3.org/2000/svg" viewBox="0 0 126.73 120.4"><defs><style>.cls-1{fill:#f7f7f7;}</style></defs><title>favourites-filled-star-symbol--white</title><path class="cls-1" d="M121.21,44.21l-34.89-3.3a6,6,0,0,1-5-3.7L68.82,6.91a6,6,0,0,0-11.11,0l-12.4,30.3a5.91,5.91,0,0,1-5,3.7l-34.9,3.3A6,6,0,0,0,2,54.71l26.3,23.1a6,6,0,0,1,1.9,5.9l-7.9,32.4a6,6,0,0,0,8.9,6.6l29.1-17.1a6.05,6.05,0,0,1,6.1,0l29.11,17.1a6,6,0,0,0,8.89-6.6l-7.8-32.4a6,6,0,0,1,1.9-5.9l26.3-23.1A6.1,6.1,0,0,0,121.21,44.21Z" transform="translate(0 -3.16)"/></svg>